<svg width="512" height="512" viewBox="0 0 512 512" fill="none" xmlns="http://www.w3.org/2000/svg">
<rect width="512" height="512" fill="#43D6FF"/>
<path fill-rule="evenodd" clip-rule="evenodd" d="M83.0029 142.317C108.972 132.396 140.165 131.931 162.184 140.069C174.019 144.443 180.067 157.582 175.694 169.417C171.32 181.252 158.18 187.3 146.346 182.926C135.834 179.041 116.117 178.577 99.3084 184.998C83.4714 191.048 75.2895 200.739 75.2895 214.844C75.2895 227.121 78.7183 234.811 82.7849 239.819C87.0195 245.035 93.2729 248.95 101.233 251.224C118.543 256.169 137.208 251.723 144.892 245.539C153.524 238.592 165.897 238.84 174.243 246.129C182.589 253.418 184.501 265.645 178.779 275.133C174.279 282.594 171.951 300.584 179.831 321.797C187.268 341.82 202.612 360.921 227.194 370.873C268.533 387.607 304.162 381.128 331.663 366.907C360.199 352.152 378.857 329.607 384.645 317.278C390.006 305.857 403.61 300.944 415.032 306.305C426.453 311.666 431.366 325.271 426.005 336.692C415.526 359.016 389.211 388.587 352.649 407.492C315.055 426.932 265.465 435.657 210.049 413.224C171.912 397.785 148.242 367.972 137 337.706C132.297 325.044 129.514 311.51 129.038 298.331C115.555 299.848 101.532 298.828 88.6811 295.156C73.5725 290.839 58.5697 282.481 47.3153 268.62C35.8929 254.553 29.5996 236.365 29.5996 214.844C29.5996 175.603 56.0624 152.609 83.0029 142.317Z" fill="white"/>
<path d="M426.193 315.302C446.886 315.302 463.661 298.527 463.661 277.834C463.661 257.141 446.886 240.366 426.193 240.366C405.5 240.366 388.725 257.141 388.725 277.834C388.725 298.527 405.5 315.302 426.193 315.302Z" stroke="#FFDC51" stroke-width="37.5108"/>
<path fill-rule="evenodd" clip-rule="evenodd" d="M248.318 154.855C248.104 155.057 247.926 155.23 247.782 155.374C241.469 164.766 229.011 168.233 218.62 163.037C207.335 157.395 202.761 143.672 208.403 132.387C210.847 127.499 214.951 123.521 216.956 121.628C219.845 118.901 223.468 115.909 227.673 112.873C236.083 106.803 247.542 100.043 261.335 94.7562C289.125 84.1044 327.387 79.1689 368.07 99.2968C406.988 118.551 426.691 145.363 436.014 170.414C444.217 192.454 443.879 212.17 443.75 219.719L443.749 219.724C443.737 220.478 443.726 221.11 443.726 221.611C443.726 222.537 443.671 223.45 443.564 224.348C466.109 231.668 482.408 252.848 482.408 277.834C482.408 308.885 457.236 334.057 426.185 334.057C395.133 334.057 369.961 308.885 369.961 277.834C369.961 256.599 381.734 238.113 399.108 228.548C398.412 226.36 398.036 224.03 398.036 221.611C398.036 220.865 398.044 220.058 398.054 219.195C398.134 211.711 398.26 199.962 393.194 186.352C387.844 171.976 376.076 154.234 347.809 140.249C321.309 127.138 296.776 130.103 277.688 137.419C268.043 141.116 260.043 145.858 254.414 149.92C251.6 151.952 249.558 153.684 248.318 154.855ZM247.27 155.92C247.265 155.92 247.322 155.852 247.455 155.71C247.342 155.848 247.275 155.919 247.27 155.92ZM444.897 277.834C444.897 288.168 436.519 296.546 426.185 296.546C415.85 296.546 407.472 288.168 407.472 277.834C407.472 267.499 415.85 259.121 426.185 259.121C436.519 259.121 444.897 267.499 444.897 277.834Z" fill="url(#paint0_linear_1322_1473)"/>
<path d="M297.476 312.842C316.81 312.842 332.483 297.169 332.483 277.835C332.483 258.501 316.81 242.828 297.476 242.828C278.142 242.828 262.469 258.501 262.469 277.835C262.469 297.169 278.142 312.842 297.476 312.842Z" fill="white"/>
<defs>
<linearGradient id="paint0_linear_1322_1473" x1="344.197" y1="146.795" x2="434.411" y2="306.537" gradientUnits="userSpaceOnUse">
<stop stop-color="#B0EEFF"/>
<stop offset="1" stop-color="#FFE683"/>
</linearGradient>
</defs>
</svg>
