<?xml version="1.0" encoding="utf-8"?>
<!-- Generator: Adobe Illustrator 27.9.6, SVG Export Plug-In . SVG Version: 9.03 Build 54986)  -->
<svg version="1.1" id="Layer_1" xmlns="http://www.w3.org/2000/svg" xmlns:xlink="http://www.w3.org/1999/xlink" x="0px" y="0px"
	 viewBox="0 0 512 512" style="enable-background:new 0 0 512 512;" xml:space="preserve">
<style type="text/css">
	.st0{fill:#43D6FF;}
	.st1{fill-rule:evenodd;clip-rule:evenodd;fill:#FFFFFF;}
	.st2{fill:none;stroke:#FFDC51;stroke-width:37.5108;}
	.st3{fill-rule:evenodd;clip-rule:evenodd;fill:url(#SVGID_1_);}
	.st4{fill:#FFFFFF;}
</style>
<path class="st0" d="M89.4,0h333.2C472,0,512,40,512,89.4v333.2c0,49.4-40,89.4-89.4,89.4H89.4C40,512,0,472,0,422.6V89.4
	C0,40,40,0,89.4,0z"/>
<path class="st1" d="M83,142.3c26-9.9,57.2-10.4,79.2-2.2c11.8,4.4,17.9,17.5,13.5,29.3c-4.4,11.8-17.5,17.9-29.3,13.5
	c-10.5-3.9-30.2-4.3-47,2.1c-15.8,6.1-24,15.7-24,29.8c0,12.3,3.4,20,7.5,25c4.2,5.2,10.5,9.1,18.4,11.4c17.3,4.9,36,0.5,43.7-5.7
	c8.6-6.9,21-6.7,29.4,0.6c8.3,7.3,10.3,19.5,4.5,29c-4.5,7.5-6.8,25.5,1.1,46.7c7.4,20,22.8,39.1,47.4,49.1
	c41.3,16.7,77,10.3,104.5-4c28.5-14.8,47.2-37.3,53-49.6c5.4-11.4,19-16.3,30.4-11c11.4,5.4,16.3,19,11,30.4
	c-10.5,22.3-36.8,51.9-73.4,70.8c-37.6,19.4-87.2,28.2-142.6,5.7c-38.1-15.4-61.8-45.3-73-75.5c-4.7-12.7-7.5-26.2-8-39.4
	c-13.5,1.5-27.5,0.5-40.4-3.2c-15.1-4.3-30.1-12.7-41.4-26.5c-11.4-14.1-17.7-32.3-17.7-53.8C29.6,175.6,56.1,152.6,83,142.3z"/>
<path class="st2" d="M426.2,315.3c20.7,0,37.5-16.8,37.5-37.5c0-20.7-16.8-37.5-37.5-37.5s-37.5,16.8-37.5,37.5
	C388.7,298.5,405.5,315.3,426.2,315.3z"/>
<linearGradient id="SVGID_1_" gradientUnits="userSpaceOnUse" x1="321.7991" y1="351.1542" x2="412.0131" y2="191.4122" gradientTransform="matrix(1 0 0 -1 0 510.5984)">
	<stop  offset="0" style="stop-color:#B0EEFF"/>
	<stop  offset="1" style="stop-color:#FFE683"/>
</linearGradient>
<path class="st3" d="M248.3,154.9c-0.2,0.2-0.4,0.4-0.5,0.5c-6.3,9.4-18.8,12.9-29.2,7.7c-11.3-5.6-15.9-19.4-10.2-30.7
	c2.4-4.9,6.5-8.9,8.6-10.8c2.9-2.7,6.5-5.7,10.7-8.8c8.4-6.1,19.9-12.8,33.7-18.1c27.8-10.7,66.1-15.6,106.7,4.5
	c38.9,19.3,58.6,46.1,67.9,71.1c8.2,22,7.9,41.8,7.7,49.3l0,0c0,0.8,0,1.4,0,1.9c0,0.9-0.1,1.8-0.2,2.7
	c22.5,7.3,38.8,28.5,38.8,53.5c0,31.1-25.2,56.2-56.2,56.2c-31.1,0-56.2-25.2-56.2-56.2c0-21.2,11.8-39.7,29.1-49.3
	c-0.7-2.2-1.1-4.5-1.1-6.9c0-0.7,0-1.6,0-2.4c0.1-7.5,0.2-19.2-4.9-32.8c-5.4-14.4-17.1-32.1-45.4-46.1c-26.5-13.1-51-10.1-70.1-2.8
	c-9.6,3.7-17.6,8.4-23.3,12.5C251.6,152,249.6,153.7,248.3,154.9z M247.3,155.9c0,0,0.1-0.1,0.2-0.2
	C247.3,155.8,247.3,155.9,247.3,155.9z M444.9,277.8c0,10.3-8.4,18.7-18.7,18.7c-10.3,0-18.7-8.4-18.7-18.7
	c0-10.3,8.4-18.7,18.7-18.7C436.5,259.1,444.9,267.5,444.9,277.8z"/>
<path class="st4" d="M297.5,312.8c19.3,0,35-15.7,35-35c0-19.3-15.7-35-35-35c-19.3,0-35,15.7-35,35
	C262.5,297.2,278.1,312.8,297.5,312.8z"/>
</svg>
