<svg width="134" height="35" viewBox="0 0 134 35" fill="none" xmlns="http://www.w3.org/2000/svg">
<path d="M93.5655 9.34659C95.5536 9.34659 97.608 9.1643 99.7287 8.79971C101.849 8.40199 103.506 7.83854 104.699 7.10937C105.56 6.57907 106.289 5.58475 106.886 4.12642C107.482 2.63494 107.78 1.25947 107.78 0H116.23C116.23 2.35322 115.716 4.80587 114.689 7.35795L127.834 9.44773C128.908 9.61857 129.699 10.5452 129.699 11.6333V15.7021C129.699 17.0631 128.482 18.1016 127.138 17.8875L114.093 15.8097V8.65057C112.8 11.1695 111.16 13.0421 109.172 14.2685C107.184 15.4948 104.732 16.3897 101.816 16.9531C98.9003 17.5166 96.1501 17.7983 93.5655 17.7983H91.826V9.34659H93.5655ZM133.626 31.0227C133.626 33.2193 131.845 35 129.648 35H88.3965V27.0455H129.648C131.845 27.0455 133.626 28.8261 133.626 31.0227Z" fill="white"/>
<path d="M89.741 34.9997H44.5117V27.0452H63.1501V20.781H71.1025V27.0452H89.741V34.9997ZM85.8145 22.0736H77.3651V17.45C73.0906 18.0466 67.7393 18.5935 61.3112 19.0906C54.9161 19.5878 50.0784 19.8364 46.798 19.8364V12.379C50.9068 12.379 56.0427 12.263 62.2058 12.031C68.402 11.7658 73.4551 11.4013 77.3651 10.9372V7.90456H47.7921V0.944336H85.8145V22.0736Z" fill="white"/>
<path d="M45.8552 34.9997H0.625977V27.0452H19.2644V20.781H27.2168V27.0452H45.8552V34.9997ZM41.9287 22.0736H33.4793V17.45C29.2049 18.0466 23.8536 18.5935 17.4254 19.0906C11.0304 19.5878 6.19265 19.8364 2.91229 19.8364V12.379C7.02103 12.379 12.1569 12.263 18.3201 12.031C24.5163 11.7658 29.5694 11.4013 33.4793 10.9372V7.90456H3.90634V0.944336H41.9287V22.0736Z" fill="white"/>
</svg>
