<svg width="151" height="112" viewBox="0 0 151 112" fill="none" xmlns="http://www.w3.org/2000/svg">
<path fill-rule="evenodd" clip-rule="evenodd" d="M18.3185 18.6651C26.9221 15.4069 37.2564 15.2542 44.5513 17.9268C48.4723 19.3633 50.476 23.6783 49.0272 27.5651C47.5781 31.4519 43.2248 33.4381 39.3042 32.0017C35.8215 30.7258 29.2893 30.5734 23.7206 32.6821C18.4738 34.669 15.7631 37.8517 15.7631 42.484C15.7631 46.5159 16.8991 49.0414 18.2463 50.6861C19.6492 52.3991 21.721 53.6849 24.3582 54.4317C30.093 56.0557 36.2767 54.5956 38.8225 52.5647C41.6823 50.2832 45.7814 50.3646 48.5465 52.7584C51.3115 55.1522 51.945 59.1678 50.0493 62.2837C48.5584 64.734 47.7871 70.6422 50.3978 77.6089C52.8617 84.1847 57.9452 90.4577 66.0892 93.7261C79.7849 99.2218 91.5888 97.094 100.7 92.4236C110.154 87.5779 116.335 80.1738 118.253 76.1248C120.029 72.374 124.536 70.7604 128.32 72.5211C132.104 74.2817 133.732 78.7498 131.955 82.5006C128.484 89.8321 119.766 99.5436 107.653 105.752C95.1976 112.137 78.7684 115.002 60.409 107.635C47.7742 102.564 39.9323 92.7734 36.2078 82.8336C34.6497 78.6752 33.7277 74.2305 33.57 69.9023C29.1031 70.4005 24.4573 70.0655 20.1997 68.8596C15.1942 67.4418 10.2238 64.6969 6.49521 60.1448C2.71095 55.525 0.625977 49.5518 0.625977 42.484C0.625977 29.5967 9.39313 22.0451 18.3185 18.6651Z" fill="white"/>
<path fill-rule="evenodd" clip-rule="evenodd" d="M73.0714 22.7825C73.0005 22.8489 72.9415 22.9057 72.8938 22.953C70.8023 26.0374 66.6749 27.1761 63.2324 25.4696C59.4936 23.6167 57.9783 19.1099 59.8475 15.4037C60.6572 13.7984 62.0168 12.492 62.6811 11.8703C63.6382 10.9747 64.8385 9.99212 66.2316 8.99505C69.0179 7.00158 72.8143 4.7815 77.3839 3.04524C86.5908 -0.452961 99.267 -2.07385 112.745 4.53644C125.639 10.8598 132.167 19.6652 135.255 27.8923C137.973 35.1306 137.861 41.6056 137.818 44.0848L137.818 44.0864C137.814 44.3341 137.81 44.5416 137.81 44.7061C137.81 45.0103 137.792 45.3101 137.757 45.605C145.226 48.009 150.626 54.9648 150.626 63.1706C150.626 73.3682 142.286 81.635 131.999 81.635C121.711 81.635 113.372 73.3682 113.372 63.1706C113.372 56.1967 117.272 50.1256 123.028 46.9844C122.798 46.2658 122.673 45.5006 122.673 44.7061C122.673 44.4612 122.676 44.1961 122.679 43.9127C122.706 41.4549 122.747 37.5963 121.069 33.1266C119.296 28.4053 115.398 22.5786 106.033 17.9857C97.2533 13.6799 89.1255 14.6536 82.8017 17.0563C79.6063 18.2705 76.9559 19.8278 75.091 21.1618C74.1587 21.8291 73.4822 22.398 73.0714 22.7825ZM72.7242 23.1323C72.7225 23.1323 72.7414 23.11 72.7854 23.0633C72.748 23.1087 72.7258 23.132 72.7242 23.1323ZM138.198 63.1706C138.198 66.5644 135.423 69.3159 131.999 69.3159C128.575 69.3159 125.799 66.5644 125.799 63.1706C125.799 59.7764 128.575 57.025 131.999 57.025C135.423 57.025 138.198 59.7764 138.198 63.1706Z" fill="url(#paint0_linear_3600_38970)"/>
<path d="M89.3782 74.6687C95.7835 74.6687 100.976 69.5214 100.976 63.1719C100.976 56.8224 95.7835 51.675 89.3782 51.675C82.9728 51.675 77.7803 56.8224 77.7803 63.1719C77.7803 69.5214 82.9728 74.6687 89.3782 74.6687Z" fill="white"/>
<defs>
<linearGradient id="paint0_linear_3600_38970" x1="104.836" y1="20.1355" x2="134.329" y2="72.8181" gradientUnits="userSpaceOnUse">
<stop stop-color="#C4F2FF"/>
<stop offset="1" stop-color="#FFE683"/>
</linearGradient>
</defs>
</svg>
