<svg width="104" height="104" viewBox="0 0 104 104" fill="none" xmlns="http://www.w3.org/2000/svg">
<rect width="104" height="104" rx="8" fill="#F0F0F0"/>
<path d="M75.92 22.6666H68.08C65.76 22.6666 64.0534 23.6266 63.28 25.3333C62.8534 26.1066 62.6667 27.0133 62.6667 28.08V35.92C62.6667 39.3066 64.6934 41.3333 68.08 41.3333H75.92C76.9867 41.3333 77.8934 41.1466 78.6667 40.72C80.3734 39.9466 81.3334 38.24 81.3334 35.92V28.08C81.3334 24.6933 79.3067 22.6666 75.92 22.6666ZM78.4267 33.1466C78.16 33.4133 77.76 33.6 77.3334 33.6266H73.5734V34.9866L73.6 37.3333C73.5734 37.7866 73.4134 38.16 73.0934 38.48C72.8267 38.7466 72.4267 38.9333 72 38.9333C71.12 38.9333 70.4 38.2133 70.4 37.3333V33.6L66.6667 33.6266C65.7867 33.6266 65.0667 32.88 65.0667 32C65.0667 31.12 65.7867 30.4 66.6667 30.4L69.0134 30.4266H70.4V26.6933C70.4 25.8133 71.12 25.0666 72 25.0666C72.88 25.0666 73.6 25.8133 73.6 26.6933L73.5734 28.5866V30.4H77.3334C78.2134 30.4 78.9334 31.12 78.9334 32C78.9067 32.4533 78.72 32.8266 78.4267 33.1466Z" fill="#D8D8D8"/>
<path d="M44 47.68C47.5052 47.68 50.3467 44.8385 50.3467 41.3334C50.3467 37.8282 47.5052 34.9867 44 34.9867C40.4948 34.9867 37.6533 37.8282 37.6533 41.3334C37.6533 44.8385 40.4948 47.68 44 47.68Z" fill="#D8D8D8"/>
<path d="M75.92 41.3334H74.6666V53.6267L74.32 53.3334C72.24 51.5467 68.88 51.5467 66.8 53.3334L55.7066 62.8534C53.6266 64.64 50.2666 64.64 48.1866 62.8534L47.28 62.1067C45.3866 60.4534 42.3733 60.2934 40.24 61.7334L30.2666 68.4267C29.68 66.9334 29.3333 65.2 29.3333 63.1734V40.8267C29.3333 33.3067 33.3066 29.3334 40.8266 29.3334H62.6666V28.08C62.6666 27.0134 62.8533 26.1067 63.28 25.3334H40.8266C31.12 25.3334 25.3333 31.12 25.3333 40.8267V63.1734C25.3333 66.08 25.84 68.6134 26.8266 70.7467C29.12 75.8134 34.0266 78.6667 40.8266 78.6667H63.1733C72.88 78.6667 78.6666 72.88 78.6666 63.1734V40.72C77.8933 41.1467 76.9866 41.3334 75.92 41.3334Z" fill="#D8D8D8"/>
</svg>
