<svg width="16" height="16" viewBox="0 0 16 16" fill="none" xmlns="http://www.w3.org/2000/svg">
<g clip-path="url(#clip0_5119_6214)">
<path d="M8.66683 13.3335C9.55056 13.3324 10.3978 12.9809 11.0227 12.356C11.6476 11.7311 11.9991 10.8839 12.0002 10.0001V4.16213C12.0012 3.81171 11.9327 3.46456 11.7985 3.14081C11.6644 2.81707 11.4674 2.52316 11.2188 2.27613L9.72416 0.781467C9.47714 0.532916 9.18323 0.335869 8.85948 0.201747C8.53574 0.0676253 8.18859 -0.000903231 7.83816 0.000133663H4.66683C3.7831 0.00119224 2.93587 0.352722 2.31098 0.977614C1.68608 1.60251 1.33455 2.44974 1.3335 3.33347V10.0001C1.33455 10.8839 1.68608 11.7311 2.31098 12.356C2.93587 12.9809 3.7831 13.3324 4.66683 13.3335H8.66683ZM2.66683 10.0001V3.33347C2.66683 2.80303 2.87754 2.29433 3.25262 1.91925C3.62769 1.54418 4.1364 1.33347 4.66683 1.33347C4.66683 1.33347 7.94616 1.3428 8.00016 1.34947V2.6668C8.00016 3.02042 8.14064 3.35956 8.39069 3.60961C8.64074 3.85966 8.97987 4.00013 9.3335 4.00013H10.6508C10.6575 4.05413 10.6668 10.0001 10.6668 10.0001C10.6668 10.5306 10.4561 11.0393 10.081 11.4143C9.70597 11.7894 9.19726 12.0001 8.66683 12.0001H4.66683C4.1364 12.0001 3.62769 11.7894 3.25262 11.4143C2.87754 11.0393 2.66683 10.5306 2.66683 10.0001ZM14.6668 5.33347V12.6668C14.6658 13.5505 14.3142 14.3978 13.6894 15.0227C13.0645 15.6475 12.2172 15.9991 11.3335 16.0001H5.3335C5.15669 16.0001 4.98712 15.9299 4.86209 15.8049C4.73707 15.6798 4.66683 15.5103 4.66683 15.3335C4.66683 15.1567 4.73707 14.9871 4.86209 14.8621C4.98712 14.737 5.15669 14.6668 5.3335 14.6668H11.3335C11.8639 14.6668 12.3726 14.4561 12.7477 14.081C13.1228 13.7059 13.3335 13.1972 13.3335 12.6668V5.33347C13.3335 5.15666 13.4037 4.98709 13.5288 4.86206C13.6538 4.73704 13.8234 4.6668 14.0002 4.6668C14.177 4.6668 14.3465 4.73704 14.4716 4.86206C14.5966 4.98709 14.6668 5.15666 14.6668 5.33347Z" fill="#717171"/>
</g>
<defs>
<clipPath id="clip0_5119_6214">
<rect width="16" height="16" fill="white"/>
</clipPath>
</defs>
</svg>
