<svg width="20" height="20" viewBox="0 0 20 20" fill="none" xmlns="http://www.w3.org/2000/svg">
<path d="M3.58459 3.33646C3.58459 2.74667 4.06271 2.26855 4.6525 2.26855H12.9448C14.1244 2.26855 15.0807 3.22479 15.0807 4.40437V15.7836C15.0807 16.3734 14.6025 16.8515 14.0128 16.8515H4.6525C4.06271 16.8515 3.58459 16.3734 3.58459 15.7836V3.33646Z" fill="#43D6FF"/>
<path d="M12.2078 9.87695L5.07979 9.87695" stroke="#555555" stroke-linecap="round"/>
<path d="M12.2078 6.41199L5.07979 6.41199" stroke="#555555" stroke-linecap="round"/>
<path d="M12.2078 13.5878L5.07979 13.5878" stroke="#555555" stroke-linecap="round"/>
<path d="M14.7705 17.7306H4.28205C3.31088 17.7306 2.5236 16.9433 2.5236 15.9722V15.9722" stroke="#555555" stroke-linecap="round"/>
<path d="M2.52302 13.3322V4.67293C2.52302 3.49335 3.47926 2.53711 4.65884 2.53711H12.6341C13.8137 2.53711 14.7699 3.49335 14.7699 4.67293V15.902C14.7699 16.6659 15.303 17.3263 16.0498 17.4874V17.4874" stroke="#555555" stroke-linecap="round"/>
<path d="M16.4923 11.1931V11.1931C17.0383 11.1931 17.481 11.6358 17.481 12.1818V15.2244C17.481 16.6089 16.3586 17.7312 14.9742 17.7312H13.2293" stroke="#555555" stroke-linecap="round"/>
</svg>
