<svg width="32" height="32" viewBox="0 0 32 32" fill="none" xmlns="http://www.w3.org/2000/svg">
<g id="Icon/navi/community">
<path id="Icon" d="M29.3334 28V25.3333C29.3334 22.8482 27.6337 20.7601 25.3334 20.168M20.6667 4.38768C22.6212 5.17886 24 7.09508 24 9.33333C24 11.5716 22.6212 13.4878 20.6667 14.279M22.6667 28C22.6667 25.515 22.6667 24.2725 22.2607 23.2924C21.7194 21.9855 20.6811 20.9473 19.3743 20.406C18.3942 20 17.1517 20 14.6667 20H10.6667C8.18163 20 6.93911 20 5.959 20.406C4.65218 20.9473 3.61392 21.9855 3.07261 23.2924C2.66664 24.2725 2.66664 25.515 2.66664 28M18 9.33333C18 12.2789 15.6122 14.6667 12.6667 14.6667C9.72113 14.6667 7.33331 12.2789 7.33331 9.33333C7.33331 6.38781 9.72113 4 12.6667 4C15.6122 4 18 6.38781 18 9.33333Z" stroke="#C6C6C6" stroke-width="2" stroke-linecap="round" stroke-linejoin="round"/>
</g>
</svg>
