<svg width="64" height="25" viewBox="0 0 64 25" fill="none" xmlns="http://www.w3.org/2000/svg">
<g id="Frame 1000004238">
<g id="&#236;&#189;&#148;&#236;&#189;&#148;&#236;&#138;&#164;">
<path id="Vector" d="M44.2855 8.89553C45.1646 8.89553 46.073 8.81495 47.0108 8.65378C47.9485 8.47795 48.6811 8.22887 49.2086 7.90652C49.5895 7.67209 49.9119 7.23253 50.1756 6.58784C50.4393 5.9285 50.5712 5.32045 50.5712 4.76367H54.3075C54.3075 5.80396 54.0804 6.88821 53.6261 8.01641L58.6901 8.82128C59.5964 8.96533 60.2635 9.74684 60.2635 10.6645C60.2635 11.8123 59.2372 12.6881 58.1036 12.5076L53.3624 11.7527V8.58784C52.791 9.70139 52.0657 10.5292 51.1866 11.0714C50.3075 11.6135 49.2232 12.0091 47.9338 12.2582C46.6445 12.5073 45.4284 12.6318 44.2855 12.6318H43.5163V8.89553H44.2855ZM61.9998 18.4779C61.9998 19.449 61.2126 20.2362 60.2415 20.2362H41.9998V16.7197H60.2415C61.2126 16.7197 61.9998 17.5069 61.9998 18.4779Z" fill="#3DC4F5"/>
<path id="Vector_2" d="M41.9998 20.2361H21.9998V16.7196H30.2416V13.9504H33.7581V16.7196H41.9998V20.2361ZM40.2635 14.5218H36.5273V12.4778C34.6372 12.7416 32.2709 12.9833 29.4284 13.2031C26.6006 13.4229 24.4614 13.5328 23.0108 13.5328V10.2361C24.8277 10.2361 27.0987 10.1848 29.824 10.0822C32.5639 9.96503 34.7984 9.80386 36.5273 9.59873V8.25807H23.4504V5.18115H40.2635V14.5218Z" fill="#3DC4F5"/>
<path id="Vector_3" d="M21.9998 20.2361H1.99988V16.7196H10.2416V13.9504H13.7581V16.7196H21.9998V20.2361ZM20.2636 14.5218H16.5273V12.4778C14.6372 12.7416 12.2709 12.9833 9.42844 13.2031C6.6006 13.4229 4.46141 13.5328 3.01087 13.5328V10.2361C4.82771 10.2361 7.09877 10.1848 9.82404 10.0822C12.564 9.96503 14.7984 9.80386 16.5273 9.59873V8.25807H3.45043V5.18115H20.2636V14.5218Z" fill="#3DC4F5"/>
</g>
</g>
</svg>
