<svg width="21" height="21" viewBox="0 0 21 21" fill="none" xmlns="http://www.w3.org/2000/svg">
<g id="Left Icon">
<path id="Icon" d="M10.5 17.1667H18M3 17.1667H4.39545C4.8031 17.1667 5.00693 17.1667 5.19874 17.1206C5.3688 17.0798 5.53138 17.0125 5.6805 16.9211C5.84869 16.818 5.99282 16.6739 6.28107 16.3856L16.75 5.91669C17.4404 5.22634 17.4404 4.10705 16.75 3.41669C16.0597 2.72634 14.9404 2.72634 14.25 3.41669L3.78105 13.8856C3.4928 14.1739 3.34867 14.318 3.2456 14.4862C3.15422 14.6353 3.08688 14.7979 3.04605 14.968C3 15.1598 3 15.3636 3 15.7713V17.1667Z" stroke="black" stroke-width="1.5" stroke-linecap="round" stroke-linejoin="round"/>
</g>
</svg>
