<svg width="22" height="22" viewBox="0 0 22 22" fill="none" xmlns="http://www.w3.org/2000/svg">
<g id="Icon/Normal/ellipses">
<g id="Icon">
<path d="M10.9998 11.875C11.483 11.875 11.8748 11.4832 11.8748 11C11.8748 10.5168 11.483 10.125 10.9998 10.125C10.5165 10.125 10.1248 10.5168 10.1248 11C10.1248 11.4832 10.5165 11.875 10.9998 11.875Z" stroke="#222222" stroke-width="1.5" stroke-linecap="round" stroke-linejoin="round"/>
<path d="M10.9998 5.75C11.483 5.75 11.8748 5.35825 11.8748 4.875C11.8748 4.39175 11.483 4 10.9998 4C10.5165 4 10.1248 4.39175 10.1248 4.875C10.1248 5.35825 10.5165 5.75 10.9998 5.75Z" stroke="#222222" stroke-width="1.5" stroke-linecap="round" stroke-linejoin="round"/>
<path d="M10.9998 18C11.483 18 11.8748 17.6082 11.8748 17.125C11.8748 16.6418 11.483 16.25 10.9998 16.25C10.5165 16.25 10.1248 16.6418 10.1248 17.125C10.1248 17.6082 10.5165 18 10.9998 18Z" stroke="#222222" stroke-width="1.5" stroke-linecap="round" stroke-linejoin="round"/>
</g>
</g>
</svg>
