<svg width="21" height="20" viewBox="0 0 21 20" fill="none" xmlns="http://www.w3.org/2000/svg">
<path d="M7.54671 18.3334H12.5467C16.7134 18.3334 18.38 16.6667 18.38 12.5001V7.50008C18.38 3.33341 16.7134 1.66675 12.5467 1.66675H7.54671C3.38005 1.66675 1.71338 3.33341 1.71338 7.50008V12.5001C1.71338 16.6667 3.38005 18.3334 7.54671 18.3334Z" stroke="#222222" stroke-width="1.5" stroke-linecap="round" stroke-linejoin="round"/>
<path d="M13.022 15.4167V12.1667" stroke="#222222" stroke-width="1.5" stroke-miterlimit="10" stroke-linecap="round" stroke-linejoin="round"/>
<path d="M13.022 6.20825V4.58325" stroke="#222222" stroke-width="1.5" stroke-miterlimit="10" stroke-linecap="round" stroke-linejoin="round"/>
<path d="M13.0216 10.5416C14.2183 10.5416 15.1883 9.57154 15.1883 8.37492C15.1883 7.1783 14.2183 6.20825 13.0216 6.20825C11.825 6.20825 10.855 7.1783 10.855 8.37492C10.855 9.57154 11.825 10.5416 13.0216 10.5416Z" stroke="#222222" stroke-width="1.5" stroke-miterlimit="10" stroke-linecap="round" stroke-linejoin="round"/>
<path d="M7.07178 15.4167V13.7917" stroke="#222222" stroke-width="1.5" stroke-miterlimit="10" stroke-linecap="round" stroke-linejoin="round"/>
<path d="M7.07178 7.83325V4.58325" stroke="#222222" stroke-width="1.5" stroke-miterlimit="10" stroke-linecap="round" stroke-linejoin="round"/>
<path d="M7.07194 13.7916C8.26856 13.7916 9.23861 12.8215 9.23861 11.6249C9.23861 10.4283 8.26856 9.45825 7.07194 9.45825C5.87532 9.45825 4.90527 10.4283 4.90527 11.6249C4.90527 12.8215 5.87532 13.7916 7.07194 13.7916Z" stroke="#222222" stroke-width="1.5" stroke-miterlimit="10" stroke-linecap="round" stroke-linejoin="round"/>
</svg>
