<svg width="20" height="20" viewBox="0 0 20 20" fill="none" xmlns="http://www.w3.org/2000/svg">
<path d="M10.4472 13.7374C10.312 13.7883 10.0895 13.7883 9.95436 13.7374C8.80184 13.3174 6.22656 11.5654 6.22656 8.59596C6.22656 7.28514 7.21614 6.22461 8.43622 6.22461C9.15952 6.22461 9.79937 6.59792 10.2008 7.17484C10.6022 6.59792 11.246 6.22461 11.9653 6.22461C13.1854 6.22461 14.175 7.28514 14.175 8.59596C14.175 11.5654 11.5997 13.3174 10.4472 13.7374Z" fill="#43D6FF" stroke="#555555" stroke-linecap="round" stroke-linejoin="round"/>
<path d="M18.5425 7.41602C18.3305 8.74075 17.08 11.3902 13.7734 11.3902" stroke="#555555" stroke-linecap="round"/>
<path d="M1.45752 7.41602C1.66948 8.74075 2.92003 11.3902 6.22656 11.3902" stroke="#555555" stroke-linecap="round"/>
</svg>
