<svg width="32" height="32" viewBox="0 0 32 32" fill="none" xmlns="http://www.w3.org/2000/svg">
<g id="Icon/navi/home">
<path id="Icon" d="M12 28V18.1333C12 17.3866 12 17.0132 12.1453 16.728C12.2731 16.4771 12.4771 16.2731 12.728 16.1453C13.0132 16 13.3866 16 14.1333 16H17.8667C18.6134 16 18.9868 16 19.272 16.1453C19.5229 16.2731 19.7269 16.4771 19.8547 16.728C20 17.0132 20 17.3866 20 18.1333V28M14.6903 3.68533L5.64716 10.7188C5.04267 11.189 4.74042 11.4241 4.52268 11.7185C4.32979 11.9793 4.18611 12.273 4.09868 12.5854C3.99997 12.938 3.99997 13.3209 3.99997 14.0867V23.7333C3.99997 25.2268 3.99997 25.9735 4.29062 26.544C4.54629 27.0457 4.95424 27.4537 5.456 27.7093C6.02643 28 6.77317 28 8.26665 28H23.7334C25.2268 28 25.9736 28 26.544 27.7093C27.0458 27.4537 27.4537 27.0457 27.7094 26.544C28 25.9735 28 25.2268 28 23.7333V14.0867C28 13.3209 28 12.938 27.9013 12.5854C27.8139 12.273 27.6702 11.9793 27.4773 11.7185C27.2596 11.4241 26.9573 11.189 26.3528 10.7188L17.3097 3.68533C16.8413 3.32099 16.6071 3.13883 16.3485 3.0688C16.1203 3.00701 15.8797 3.00701 15.6515 3.0688C15.3929 3.13883 15.1587 3.32099 14.6903 3.68533Z" stroke="#C6C6C6" stroke-width="2" stroke-linecap="round" stroke-linejoin="round"/>
</g>
</svg>
