<svg width="20" height="20" viewBox="0 0 20 20" fill="none" xmlns="http://www.w3.org/2000/svg">
<mask id="path-1-inside-1_1645_49860" fill="white">
<path fill-rule="evenodd" clip-rule="evenodd" d="M12.381 18.5C13.0465 18.5 13.5859 17.9605 13.5859 17.2951V13.5877H17.2951C17.9605 13.5877 18.5 13.0483 18.5 12.3828V7.61702C18.5 6.95157 17.9605 6.41211 17.2951 6.41211H13.5859V2.70491C13.5859 2.03946 13.0465 1.5 12.381 1.5H7.61522C6.94977 1.5 6.41031 2.03946 6.41031 2.70491L6.41031 6.41211H2.70491C2.03946 6.41211 1.5 6.95156 1.5 7.61702V12.3828C1.5 13.0483 2.03946 13.5877 2.70491 13.5877H6.41031L6.41031 17.2951C6.41031 17.9605 6.94977 18.5 7.61522 18.5H12.381Z"/>
</mask>
<path fill-rule="evenodd" clip-rule="evenodd" d="M12.381 18.5C13.0465 18.5 13.5859 17.9605 13.5859 17.2951V13.5877H17.2951C17.9605 13.5877 18.5 13.0483 18.5 12.3828V7.61702C18.5 6.95157 17.9605 6.41211 17.2951 6.41211H13.5859V2.70491C13.5859 2.03946 13.0465 1.5 12.381 1.5H7.61522C6.94977 1.5 6.41031 2.03946 6.41031 2.70491L6.41031 6.41211H2.70491C2.03946 6.41211 1.5 6.95156 1.5 7.61702V12.3828C1.5 13.0483 2.03946 13.5877 2.70491 13.5877H6.41031L6.41031 17.2951C6.41031 17.9605 6.94977 18.5 7.61522 18.5H12.381Z" fill="#43D6FF"/>
<path d="M13.5859 13.5877V12.5877H12.5859V13.5877H13.5859ZM13.5859 6.41211H12.5859V7.41211H13.5859V6.41211ZM13.5859 2.70491L12.5859 2.70491V2.70491H13.5859ZM6.41031 2.70491L7.41031 2.70491V2.70491H6.41031ZM6.41031 6.41211V7.41211H7.41031V6.41211H6.41031ZM2.70491 6.41211L2.70491 7.41211H2.70491V6.41211ZM6.41031 13.5877H7.41031V12.5877H6.41031V13.5877ZM6.41031 17.2951H5.41031H6.41031ZM12.5859 17.2951C12.5859 17.4083 12.4942 17.5 12.381 17.5V19.5C13.5988 19.5 14.5859 18.5128 14.5859 17.2951H12.5859ZM12.5859 13.5877V17.2951H14.5859V13.5877H12.5859ZM17.2951 12.5877H13.5859V14.5877H17.2951V12.5877ZM17.5 12.3828C17.5 12.496 17.4083 12.5877 17.2951 12.5877V14.5877C18.5128 14.5877 19.5 13.6006 19.5 12.3828H17.5ZM17.5 7.61702V12.3828H19.5V7.61702H17.5ZM17.2951 7.41211C17.4083 7.41211 17.5 7.50385 17.5 7.61702H19.5C19.5 6.39928 18.5128 5.41211 17.2951 5.41211V7.41211ZM13.5859 7.41211H17.2951V5.41211H13.5859V7.41211ZM12.5859 2.70491V6.41211H14.5859V2.70491H12.5859ZM12.381 2.5C12.4942 2.5 12.5859 2.59174 12.5859 2.70491L14.5859 2.70491C14.5859 1.48717 13.5988 0.5 12.381 0.5V2.5ZM7.61522 2.5H12.381V0.5H7.61522V2.5ZM7.41031 2.70491C7.41031 2.59174 7.50205 2.5 7.61522 2.5V0.5C6.39748 0.5 5.41031 1.48717 5.41031 2.70491H7.41031ZM7.41031 6.41211L7.41031 2.70491L5.41031 2.70491L5.41031 6.41211H7.41031ZM2.70491 7.41211H6.41031V5.41211H2.70491V7.41211ZM2.5 7.61702C2.5 7.50385 2.59174 7.41211 2.70491 7.41211L2.70491 5.41211C1.48717 5.41211 0.5 6.39928 0.5 7.61702H2.5ZM2.5 12.3828V7.61702H0.5V12.3828H2.5ZM2.70491 12.5877C2.59174 12.5877 2.5 12.496 2.5 12.3828H0.5C0.5 13.6006 1.48717 14.5877 2.70491 14.5877V12.5877ZM6.41031 12.5877H2.70491V14.5877H6.41031V12.5877ZM7.41031 17.2951L7.41031 13.5877H5.41031L5.41031 17.2951H7.41031ZM7.61522 17.5C7.50205 17.5 7.41031 17.4083 7.41031 17.2951H5.41031C5.41031 18.5128 6.39748 19.5 7.61522 19.5V17.5ZM12.381 17.5H7.61522V19.5H12.381V17.5Z" fill="#555555" mask="url(#path-1-inside-1_1645_49860)"/>
</svg>
