<svg width="57" height="56" viewBox="0 0 57 56" fill="none" xmlns="http://www.w3.org/2000/svg">
<mask id="mask0_2367_18612" style="mask-type:alpha" maskUnits="userSpaceOnUse" x="0" y="0" width="57" height="56">
<path d="M22.3046 7.5834C22.3046 6.4236 23.2448 5.4834 24.4046 5.4834H32.5652C33.725 5.4834 34.6652 6.4236 34.6652 7.5834C34.6652 8.7432 33.725 9.6834 32.5652 9.6834H24.4046C23.2448 9.6834 22.3046 8.7432 22.3046 7.5834Z" fill="#171719"/>
<path d="M18.343 7.55002C18.3782 8.70928 17.4669 9.67753 16.3076 9.71266C14.3084 9.77324 13.4756 9.93164 12.8823 10.2367L12.8611 10.2477C11.9608 10.6978 11.2117 11.4493 10.7035 12.4184C10.4004 13.0113 10.2428 13.8452 10.1824 15.8379C10.1473 16.9971 9.17907 17.9084 8.0198 17.8733C6.86054 17.8382 5.94925 16.8699 5.98438 15.7106C6.0447 13.7202 6.18855 12.0142 6.97152 10.4917L6.97791 10.4793C7.85826 8.79514 9.22004 7.37523 10.9724 6.49615C12.4921 5.71807 14.1947 5.57476 16.1804 5.51459C17.3397 5.47946 18.3079 6.39075 18.343 7.55002Z" fill="#171719"/>
<path d="M38.6268 7.55002C38.6619 6.39075 39.6302 5.47946 40.7894 5.51459C42.7751 5.57476 44.4777 5.71807 45.9974 6.49615C47.7498 7.37522 49.1115 8.79516 49.9919 10.4793L49.9983 10.4917C50.7813 12.0141 50.9251 13.7202 50.9854 15.7106C51.0206 16.8699 50.1093 17.8382 48.95 17.8733C47.7908 17.9084 46.8225 16.9971 46.7874 15.8379C46.727 13.8452 46.5694 13.0113 46.2663 12.4184C45.7581 11.4493 45.0091 10.6977 44.1088 10.2475L44.0874 10.2369C43.4942 9.93176 42.6614 9.77324 40.6622 9.71266C39.5029 9.67753 38.5917 8.70928 38.6268 7.55002Z" fill="#171719"/>
<path d="M8.08341 21.8046C9.24321 21.8046 10.1834 22.7448 10.1834 23.9046V32.0653C10.1834 33.2251 9.24321 34.1653 8.08341 34.1653C6.92362 34.1653 5.98342 33.2251 5.98342 32.0653V23.9046C5.98342 22.7448 6.92362 21.8046 8.08341 21.8046Z" fill="#171719"/>
<path d="M48.8864 21.8046C50.0462 21.8046 50.9864 22.7448 50.9864 23.9046V32.0653C50.9864 33.2251 50.0462 34.1653 48.8864 34.1653C47.7266 34.1653 46.7864 33.2251 46.7864 32.0653V23.9046C46.7864 22.7448 47.7266 21.8046 48.8864 21.8046Z" fill="#171719"/>
<path d="M48.9802 38.1268C50.1395 38.162 51.0508 39.1302 51.0157 40.2895C50.9554 42.2799 50.8115 43.986 50.0285 45.5084L50.0221 45.5208C49.1417 47.2051 47.7798 48.6251 46.0273 49.5042C44.5077 50.2821 42.8052 50.4254 40.8196 50.4855C39.6604 50.5207 38.6921 49.6094 38.657 48.4501C38.6219 47.2908 39.5332 46.3226 40.6924 46.2875C42.6916 46.2269 43.5244 46.0685 44.1177 45.7634L44.1389 45.7525C45.0393 45.3023 45.7883 44.5508 46.2965 43.5817C46.5997 42.9888 46.7572 42.1549 46.8176 40.1623C46.8527 39.003 47.821 38.0917 48.9802 38.1268Z" fill="#171719"/>
<path d="M8.0198 38.1571C9.17907 38.1219 10.1473 39.0332 10.1824 40.1925C10.243 42.1917 10.4014 43.0245 10.7065 43.6178L10.7174 43.639C11.1676 44.5394 11.9191 45.2884 12.8882 45.7966C13.4811 46.0998 14.315 46.2573 16.3076 46.3177C17.4669 46.3528 18.3782 47.3211 18.343 48.4803C18.3079 49.6396 17.3397 50.5509 16.1804 50.5158C14.19 50.4554 12.4839 50.3116 10.9615 49.5286L10.9491 49.5222C9.26494 48.6418 7.84501 47.2801 6.96594 45.5278C6.18786 44.0081 6.04455 42.3054 5.98438 40.3197C5.94925 39.1604 6.86054 38.1922 8.0198 38.1571Z" fill="#171719"/>
<path d="M22.3046 48.3865C22.3046 47.2267 23.2448 46.2865 24.4046 46.2865H32.5652C33.725 46.2865 34.6652 47.2267 34.6652 48.3865C34.6652 49.5463 33.725 50.4865 32.5652 50.4865H24.4046C23.2448 50.4865 22.3046 49.5463 22.3046 48.3865Z" fill="#171719"/>
</mask>
<g mask="url(#mask0_2367_18612)">
<rect x="0.5" width="55.9998" height="56" fill="#222222"/>
</g>
</svg>
