
<svg width="64" height="25" viewBox="0 0 64 25" fill="none" xmlns="http://www.w3.org/2000/svg">
<rect width="64" height="25" fill="#F5F5F5"/>
<g id="control">
<rect x="-2584" y="-731" width="3220" height="1829" rx="100" fill="white"/>
<g id="Frame 1000004216">
<g id="Frame 1000004206">
<rect x="-144" y="-502" width="680" height="1500" rx="100" fill="#F6F6F6"/>
<g id="Case">
<rect x="-44" y="-239" width="480" height="548" rx="16" fill="white"/>
<g id="Section">
<g id="Frame 1000004253">
<g id="Control/header">
<mask id="path-4-inside-1_135_405" fill="white">
<path d="M-20 -19H355V45H-20V-19Z"/>
</mask>
<path d="M-20 -19H355V45H-20V-19Z" fill="white"/>
<path d="M355 44H-20V46H355V44Z" fill="#F0F0F0" mask="url(#path-4-inside-1_135_405)"/>
<g id="Frame 1000004466">
<g id="logo">
<g id="&#236;&#189;&#148;&#236;&#189;&#148;&#236;&#138;&#164;">
<path id="Vector" d="M44.2855 8.89553C45.1646 8.89553 46.073 8.81495 47.0107 8.65378C47.9485 8.47795 48.6811 8.22887 49.2085 7.90652C49.5895 7.67209 49.9118 7.23253 50.1756 6.58784C50.4393 5.9285 50.5712 5.32045 50.5712 4.76367H54.3074C54.3074 5.80396 54.0803 6.88821 53.6261 8.01641L58.6901 8.82128C59.5964 8.96533 60.2635 9.74684 60.2635 10.6645C60.2635 11.8123 59.2372 12.6881 58.1036 12.5076L53.3624 11.7527V8.58784C52.7909 9.70139 52.0657 10.5292 51.1866 11.0714C50.3074 11.6135 49.2232 12.0091 47.9338 12.2582C46.6444 12.5073 45.4283 12.6318 44.2855 12.6318H43.5162V8.89553H44.2855ZM61.9997 18.4779C61.9997 19.449 61.2125 20.2362 60.2415 20.2362H41.9998V16.7197H60.2415C61.2125 16.7197 61.9997 17.5069 61.9997 18.4779Z" fill="#3DC4F5"/>
<path id="Vector_2" d="M42 20.236H22V16.7195H30.2417V13.9502H33.7582V16.7195H42V20.236ZM40.2637 14.5217H36.5274V12.4777C34.6373 12.7415 32.271 12.9832 29.4286 13.203C26.6007 13.4228 24.4615 13.5327 23.011 13.5327V10.236C24.8278 10.236 27.0989 10.1847 29.8242 10.0821C32.5641 9.96491 34.7985 9.80373 36.5274 9.59861V8.25795H23.4505V5.18103H40.2637V14.5217Z" fill="#3DC4F5"/>
<path id="Vector_3" d="M22 20.236H2V16.7195H10.2417V13.9502H13.7582V16.7195H22V20.236ZM20.2637 14.5217H16.5274V12.4777C14.6373 12.7415 12.271 12.9832 9.42856 13.203C6.60073 13.4228 4.46153 13.5327 3.01099 13.5327V10.236C4.82783 10.236 7.09889 10.1847 9.82416 10.0821C12.5641 9.96491 14.7985 9.80373 16.5274 9.59861V8.25795H3.45055V5.18103H20.2637V14.5217Z" fill="#3DC4F5"/>
</g>
</g>
</g>
</g>
</g>
</g>
</g>
</g>
</g>
</g>
</svg>
