<svg width="24" height="24" viewBox="0 0 24 24" fill="none" xmlns="http://www.w3.org/2000/svg">
<mask id="mask0_1446_28998" style="mask-type:alpha" maskUnits="userSpaceOnUse" x="2" y="2" width="20" height="20">
<path d="M9.78752 4.7085C9.78752 4.29428 10.1233 3.9585 10.5375 3.9585H13.452C13.8662 3.9585 14.202 4.29428 14.202 4.7085C14.202 5.12271 13.8662 5.4585 13.452 5.4585H10.5375C10.1233 5.4585 9.78752 5.12271 9.78752 4.7085Z" fill="#171719"/>
<path d="M8.37266 4.69657C8.38521 5.1106 8.05975 5.4564 7.64573 5.46895C6.93172 5.49058 6.63429 5.54715 6.42241 5.65612L6.41483 5.66002C6.09327 5.8208 5.82576 6.08917 5.64426 6.43528C5.53599 6.64703 5.47972 6.94485 5.45816 7.65652C5.44561 8.07054 5.09981 8.396 4.68579 8.38345C4.27176 8.37091 3.9463 8.0251 3.95885 7.61108C3.98039 6.90021 4.03176 6.29091 4.3114 5.74718L4.31368 5.74274C4.62809 5.14126 5.11444 4.63415 5.74027 4.32019C6.28302 4.04231 6.89112 3.99112 7.60029 3.96963C8.01432 3.95709 8.36012 4.28255 8.37266 4.69657Z" fill="#171719"/>
<path d="M15.6169 4.69657C15.6294 4.28255 15.9752 3.95709 16.3892 3.96963C17.0984 3.99112 17.7065 4.04231 18.2493 4.32019C18.8751 4.63415 19.3614 5.14127 19.6758 5.74275L19.6782 5.74717C19.9578 6.2909 20.0091 6.90021 20.0307 7.61108C20.0432 8.0251 19.7178 8.37091 19.3038 8.38345C18.8897 8.396 18.5439 8.07054 18.5314 7.65652C18.5098 6.94485 18.4535 6.64703 18.3453 6.43529C18.1638 6.08918 17.8963 5.82076 17.5747 5.65997L17.5671 5.65616C17.3552 5.5472 17.0578 5.49058 16.3438 5.46895C15.9298 5.4564 15.6043 5.1106 15.6169 4.69657Z" fill="#171719"/>
<path d="M4.7085 9.78751C5.12272 9.78751 5.4585 10.1233 5.4585 10.5375V13.452C5.4585 13.8662 5.12272 14.202 4.7085 14.202C4.29429 14.202 3.9585 13.8662 3.9585 13.452V10.5375C3.9585 10.1233 4.29429 9.78751 4.7085 9.78751Z" fill="#171719"/>
<path d="M19.281 9.78751C19.6952 9.78751 20.031 10.1233 20.031 10.5375V13.452C20.031 13.8662 19.6952 14.202 19.281 14.202C18.8668 14.202 18.531 13.8662 18.531 13.452V10.5375C18.531 10.1233 18.8668 9.78751 19.281 9.78751Z" fill="#171719"/>
<path d="M19.3145 15.6169C19.7286 15.6294 20.054 15.9752 20.0415 16.3892C20.0199 17.1001 19.9686 17.7094 19.6889 18.2531L19.6866 18.2576C19.3722 18.8591 18.8858 19.3663 18.2599 19.6802C17.7172 19.958 17.1092 20.0092 16.4 20.0307C15.986 20.0432 15.6402 19.7178 15.6277 19.3038C15.6151 18.8897 15.9406 18.5439 16.3546 18.5314C17.0686 18.5097 17.366 18.4532 17.5779 18.3442L17.5855 18.3403C17.9071 18.1795 18.1746 17.9112 18.3561 17.565C18.4643 17.3533 18.5206 17.0555 18.5422 16.3438C18.5547 15.9298 18.9005 15.6043 19.3145 15.6169Z" fill="#171719"/>
<path d="M4.68579 15.6277C5.09981 15.6151 5.44561 15.9406 5.45816 16.3546C5.47979 17.0686 5.53636 17.366 5.64533 17.5779L5.64923 17.5855C5.81001 17.9071 6.07839 18.1746 6.4245 18.3561C6.63624 18.4643 6.93406 18.5206 7.64573 18.5422C8.05975 18.5547 8.38521 18.9005 8.37266 19.3145C8.36012 19.7286 8.01432 20.054 7.60029 20.0415C6.88942 20.0199 6.28012 19.9686 5.73639 19.6889L5.73196 19.6866C5.13048 19.3722 4.62336 18.8859 4.3094 18.2601C4.03152 17.7173 3.98034 17.1092 3.95885 16.4C3.9463 15.986 4.27176 15.6402 4.68579 15.6277Z" fill="#171719"/>
<path d="M9.78752 19.281C9.78752 18.8668 10.1233 18.531 10.5375 18.531H13.452C13.8662 18.531 14.202 18.8668 14.202 19.281C14.202 19.6952 13.8662 20.031 13.452 20.031H10.5375C10.1233 20.031 9.78752 19.6952 9.78752 19.281Z" fill="#171719"/>
</mask>
<g mask="url(#mask0_1446_28998)">
<rect x="2" y="2" width="20" height="20" fill="#222222"/>
</g>
</svg>
