<svg width="32" height="32" viewBox="0 0 32 32" fill="none" xmlns="http://www.w3.org/2000/svg">
<g id="Icon/navi/review">
<path id="Icon" d="M18.6667 14.6666H10.6667M13.3334 20H10.6667M21.3334 9.33329H10.6667M26.6667 14V9.06663C26.6667 6.82642 26.6667 5.70631 26.2307 4.85066C25.8472 4.09802 25.2353 3.48609 24.4827 3.1026C23.627 2.66663 22.5069 2.66663 20.2667 2.66663H11.7334C9.49316 2.66663 8.37306 2.66663 7.51741 3.1026C6.76476 3.48609 6.15284 4.09802 5.76935 4.85066C5.33337 5.70631 5.33337 6.82642 5.33337 9.06663V22.9333C5.33337 25.1735 5.33337 26.2936 5.76935 27.1493C6.15284 27.9019 6.76476 28.5138 7.51741 28.8973C8.37306 29.3333 9.49316 29.3333 11.7334 29.3333H15.3334M29.3334 29.3333L27.3334 27.3333M28.6667 24C28.6667 26.5773 26.5774 28.6666 24 28.6666C21.4227 28.6666 19.3334 26.5773 19.3334 24C19.3334 21.4226 21.4227 19.3333 24 19.3333C26.5774 19.3333 28.6667 21.4226 28.6667 24Z" stroke="#C6C6C6" stroke-width="2" stroke-linecap="round" stroke-linejoin="round"/>
</g>
</svg>
