<svg width="32" height="32" viewBox="0 0 32 32" fill="none" xmlns="http://www.w3.org/2000/svg">
<g id="Icon/navi/review">
<path id="Icon" d="M18.6667 14.6666H10.6667M13.3334 20H10.6667M21.3334 9.33329H10.6667M26.6667 14V9.06663C26.6667 6.82642 26.6667 5.70631 26.2307 4.85066C25.8473 4.09802 25.2353 3.48609 24.4827 3.1026C23.627 2.66663 22.5069 2.66663 20.2667 2.66663H11.7334C9.49314 2.66663 8.37304 2.66663 7.51739 3.1026C6.76474 3.48609 6.15281 4.09802 5.76932 4.85066C5.33334 5.70631 5.33334 6.82642 5.33334 9.06663V22.9333C5.33334 25.1735 5.33334 26.2936 5.76932 27.1493C6.15281 27.9019 6.76474 28.5138 7.51739 28.8973C8.37304 29.3333 9.49314 29.3333 11.7334 29.3333H15.3334M29.3334 29.3333L27.3334 27.3333M28.6667 24C28.6667 26.5773 26.5774 28.6666 24.0001 28.6666C21.4227 28.6666 19.3334 26.5773 19.3334 24C19.3334 21.4226 21.4227 19.3333 24.0001 19.3333C26.5774 19.3333 28.6667 21.4226 28.6667 24Z" stroke="#222222" stroke-width="2" stroke-linecap="round" stroke-linejoin="round"/>
</g>
</svg>
