<svg width="20" height="20" viewBox="0 0 20 20" fill="none" xmlns="http://www.w3.org/2000/svg">
<circle cx="4.95369" cy="4.95369" r="4.95369" transform="matrix(-0.796932 0.604069 0.604069 0.796932 10.2773 1.19531)" fill="#43D6FF"/>
<circle cx="5.44607" cy="5.44607" r="4.94607" transform="matrix(-0.796932 0.604069 0.604069 0.796932 10.3711 0.505493)" stroke="#555555"/>
<path fill-rule="evenodd" clip-rule="evenodd" d="M12.6737 12.2499C12.4677 11.9781 12.0804 11.9248 11.8087 12.1308C11.537 12.3368 11.4836 12.724 11.6896 12.9958L12.1281 13.5742C12.1706 13.6304 12.221 13.6772 12.2764 13.7144C12.0573 14.0562 12.0619 14.5122 12.3215 14.8547L14.2323 17.3756C14.5649 17.8143 15.1902 17.9004 15.6289 17.5678L16.0082 17.2803C16.447 16.9478 16.5331 16.3225 16.2005 15.8837L14.2896 13.3628C14.0309 13.0214 13.5949 12.8935 13.2074 13.0103C13.1867 12.9464 13.155 12.8848 13.1122 12.8283L12.6737 12.2499ZM15.4017 16.4853L13.4946 13.9694L13.1203 14.2531L15.0273 16.769L15.4017 16.4853Z" fill="#555555"/>
</svg>
