<svg width="21" height="21" viewBox="0 0 21 21" fill="none" xmlns="http://www.w3.org/2000/svg">
<g id="Icon/Normal/settings">
<g id="Icon">
<path d="M10.5004 13.0001C11.8811 13.0001 13.0004 11.8808 13.0004 10.5001C13.0004 9.11937 11.8811 8.00008 10.5004 8.00008C9.11964 8.00008 8.00035 9.11937 8.00035 10.5001C8.00035 11.8808 9.11964 13.0001 10.5004 13.0001Z" stroke="#222222" stroke-width="1.5" stroke-linecap="round" stroke-linejoin="round"/>
<path d="M16.1064 12.7728C16.0056 13.0013 15.9755 13.2548 16.0201 13.5005C16.0646 13.7463 16.1818 13.9731 16.3564 14.1516L16.4019 14.1971C16.5428 14.3378 16.6545 14.5049 16.7308 14.6888C16.807 14.8727 16.8463 15.0699 16.8463 15.269C16.8463 15.4681 16.807 15.6653 16.7308 15.8492C16.6545 16.0332 16.5428 16.2003 16.4019 16.341C16.2612 16.4819 16.0941 16.5936 15.9101 16.6699C15.7262 16.7461 15.529 16.7854 15.3299 16.7854C15.1308 16.7854 14.9336 16.7461 14.7497 16.6699C14.5658 16.5936 14.3987 16.4819 14.2579 16.341L14.2125 16.2955C14.0339 16.1209 13.8072 16.0037 13.5614 15.9592C13.3157 15.9146 13.0622 15.9447 12.8337 16.0455C12.6096 16.1416 12.4185 16.301 12.2839 16.5043C12.1493 16.7075 12.0771 16.9457 12.0761 17.1895V17.3183C12.0761 17.7201 11.9165 18.1055 11.6323 18.3896C11.3482 18.6738 10.9628 18.8334 10.561 18.8334C10.1591 18.8334 9.77373 18.6738 9.48958 18.3896C9.20544 18.1055 9.0458 17.7201 9.0458 17.3183V17.2501C9.03994 16.9993 8.95877 16.7561 8.81286 16.5521C8.66694 16.3481 8.46303 16.1927 8.22762 16.1061C7.99912 16.0053 7.74565 15.9752 7.4999 16.0198C7.25414 16.0643 7.02737 16.1815 6.84883 16.3561L6.80337 16.4016C6.66265 16.5425 6.49555 16.6542 6.31161 16.7305C6.12768 16.8067 5.93051 16.846 5.7314 16.846C5.53228 16.846 5.33512 16.8067 5.15118 16.7305C4.96725 16.6542 4.80014 16.5425 4.65943 16.4016C4.51855 16.2609 4.40679 16.0938 4.33055 15.9098C4.2543 15.7259 4.21505 15.5287 4.21505 15.3296C4.21505 15.1305 4.2543 14.9334 4.33055 14.7494C4.40679 14.5655 4.51855 14.3984 4.65943 14.2577L4.70488 14.2122C4.87953 14.0337 4.99669 13.8069 5.04125 13.5611C5.08581 13.3154 5.05573 13.0619 4.95488 12.8334C4.85885 12.6093 4.69939 12.4183 4.49614 12.2836C4.29289 12.149 4.05472 12.0768 3.81094 12.0758H3.68215C3.2803 12.0758 2.89492 11.9162 2.61077 11.6321C2.32662 11.3479 2.16699 10.9625 2.16699 10.5607C2.16699 10.1588 2.32662 9.77346 2.61077 9.48931C2.89492 9.20517 3.2803 9.04554 3.68215 9.04554H3.75033C4.00109 9.03967 4.24428 8.95851 4.44829 8.81259C4.6523 8.66667 4.8077 8.46276 4.89427 8.22735C4.99512 7.99886 5.0252 7.74539 4.98064 7.49964C4.93608 7.25388 4.81892 7.02711 4.64427 6.84857L4.59882 6.80311C4.45794 6.6624 4.34619 6.49529 4.26994 6.31135C4.19369 6.12742 4.15444 5.93026 4.15444 5.73114C4.15444 5.53203 4.19369 5.33487 4.26994 5.15093C4.34619 4.96699 4.45794 4.79989 4.59882 4.65917C4.73954 4.5183 4.90664 4.40654 5.09058 4.33029C5.27451 4.25405 5.47168 4.2148 5.67079 4.2148C5.86991 4.2148 6.06707 4.25405 6.25101 4.33029C6.43494 4.40654 6.60205 4.5183 6.74277 4.65917L6.78822 4.70463C6.96677 4.87928 7.19354 4.99643 7.43929 5.04099C7.68505 5.08555 7.93852 5.05547 8.16701 4.95463H8.22762C8.45169 4.85859 8.64279 4.69914 8.77739 4.49589C8.91199 4.29264 8.98423 4.05447 8.9852 3.81069V3.6819C8.9852 3.28006 9.14483 2.89467 9.42898 2.61053C9.71312 2.32638 10.0985 2.16675 10.5004 2.16675C10.9022 2.16675 11.2876 2.32638 11.5717 2.61053C11.8559 2.89467 12.0155 3.28006 12.0155 3.6819V3.75008C12.0165 3.99386 12.0887 4.23203 12.2233 4.43528C12.3579 4.63853 12.549 4.79799 12.7731 4.89402C13.0016 4.99487 13.2551 5.02495 13.5008 4.98039C13.7466 4.93583 13.9733 4.81867 14.1519 4.64402L14.1973 4.59857C14.3381 4.45769 14.5052 4.34594 14.6891 4.26969C14.873 4.19344 15.0702 4.15419 15.2693 4.15419C15.4684 4.15419 15.6656 4.19344 15.8495 4.26969C16.0335 4.34594 16.2006 4.45769 16.3413 4.59857C16.4822 4.73928 16.5939 4.90639 16.6702 5.09032C16.7464 5.27426 16.7857 5.47142 16.7857 5.67054C16.7857 5.86965 16.7464 6.06681 16.6702 6.25075C16.5939 6.43469 16.4822 6.60179 16.3413 6.74251L16.2958 6.78796C16.1212 6.96651 16.004 7.19328 15.9595 7.43903C15.9149 7.68478 15.945 7.93825 16.0458 8.16675V8.22735C16.1419 8.45142 16.3013 8.64252 16.5046 8.77712C16.7078 8.91172 16.946 8.98396 17.1898 8.98493H17.3186C17.7204 8.98493 18.1058 9.14456 18.3899 9.42871C18.6741 9.71285 18.8337 10.0982 18.8337 10.5001C18.8337 10.9019 18.6741 11.2873 18.3899 11.5715C18.1058 11.8556 17.7204 12.0152 17.3186 12.0152H17.2504C17.0066 12.0162 16.7684 12.0884 16.5652 12.223C16.3619 12.3576 16.2025 12.5487 16.1064 12.7728Z" stroke="#222222" stroke-width="1.5" stroke-linecap="round" stroke-linejoin="round"/>
</g>
</g>
</svg>
