<svg width="20" height="20" viewBox="0 0 20 20" fill="none" xmlns="http://www.w3.org/2000/svg">
<mask id="mask0_6526_38123" style="mask-type:alpha" maskUnits="userSpaceOnUse" x="0" y="0" width="20" height="20">
<path d="M16.6666 10.0001C16.6666 13.682 13.6818 16.6667 9.99987 16.6667M16.6666 10.0001C16.6666 6.31818 13.6818 3.33341 9.99987 3.33341M16.6666 10.0001H18.3332M9.99987 16.6667C6.31796 16.6667 3.33318 13.682 3.33318 10.0001M9.99987 16.6667V18.3334M3.33318 10.0001C3.33318 6.31818 6.31796 3.33341 9.99987 3.33341M3.33318 10.0001H1.6665M9.99987 3.33341V1.66675M12.4999 10.0001C12.4999 11.3808 11.3806 12.5001 9.99987 12.5001C8.61915 12.5001 7.49986 11.3808 7.49986 10.0001C7.49986 8.61937 8.61915 7.50008 9.99987 7.50008C11.3806 7.50008 12.4999 8.61937 12.4999 10.0001Z" stroke="#222222" stroke-width="1.5" stroke-linecap="round" stroke-linejoin="round"/>
</mask>
<g mask="url(#mask0_6526_38123)">
<rect width="19.9999" height="20" fill="#222222"/>
</g>
</svg>
