<svg width="57" height="56" viewBox="0 0 57 56" fill="none" xmlns="http://www.w3.org/2000/svg">
<mask id="mask0_1759_6855" style="mask-type:alpha" maskUnits="userSpaceOnUse" x="0" y="0" width="57" height="56">
<path d="M22.0546 7.58364C22.0546 6.42384 22.9948 5.48364 24.1546 5.48364H32.3152C33.475 5.48364 34.4152 6.42384 34.4152 7.58364C34.4152 8.74344 33.475 9.68364 32.3152 9.68364H24.1546C22.9948 9.68364 22.0546 8.74344 22.0546 7.58364Z" fill="#171719"/>
<path d="M18.093 7.55026C18.1282 8.70953 17.2169 9.67777 16.0576 9.7129C14.0584 9.77349 13.2256 9.93188 12.6323 10.237L12.6111 10.2479C11.7108 10.6981 10.9617 11.4495 10.4535 12.4186C10.1504 13.0115 9.99283 13.8454 9.93244 15.8381C9.89731 16.9974 8.92907 17.9087 7.7698 17.8735C6.61054 17.8384 5.69925 16.8701 5.73438 15.7109C5.7947 13.7204 5.93855 12.0144 6.72152 10.492L6.72791 10.4795C7.60826 8.79538 8.97004 7.37548 10.7224 6.4964C12.2421 5.71831 13.9447 5.575 15.9304 5.51483C17.0897 5.4797 18.0579 6.39099 18.093 7.55026Z" fill="#171719"/>
<path d="M38.3768 7.55026C38.4119 6.39099 39.3802 5.4797 40.5394 5.51483C42.5251 5.575 44.2277 5.71831 45.7474 6.49639C47.4998 7.37547 48.8615 8.7954 49.7419 10.4795L49.7483 10.4919C50.5313 12.0144 50.6751 13.7204 50.7354 15.7109C50.7706 16.8701 49.8593 17.8384 48.7 17.8735C47.5408 17.9087 46.5725 16.9974 46.5374 15.8381C46.477 13.8454 46.3194 13.0115 46.0163 12.4187C45.5081 11.4495 44.7591 10.698 43.8588 10.2478L43.8374 10.2371C43.2442 9.932 42.4114 9.77349 40.4122 9.7129C39.2529 9.67777 38.3417 8.70953 38.3768 7.55026Z" fill="#171719"/>
<path d="M7.83341 21.8049C8.99321 21.8049 9.93341 22.7451 9.93341 23.9049V32.0655C9.93341 33.2253 8.99321 34.1655 7.83341 34.1655C6.67362 34.1655 5.73342 33.2253 5.73342 32.0655V23.9049C5.73342 22.7451 6.67362 21.8049 7.83341 21.8049Z" fill="#171719"/>
<path d="M48.6364 21.8049C49.7962 21.8049 50.7364 22.7451 50.7364 23.9049V32.0655C50.7364 33.2253 49.7962 34.1655 48.6364 34.1655C47.4766 34.1655 46.5364 33.2253 46.5364 32.0655V23.9049C46.5364 22.7451 47.4766 21.8049 48.6364 21.8049Z" fill="#171719"/>
<path d="M48.7302 38.1271C49.8895 38.1622 50.8008 39.1305 50.7657 40.2897C50.7054 42.2802 50.5615 43.9862 49.7785 45.5087L49.7721 45.5211C48.8917 47.2053 47.5298 48.6254 45.7773 49.5044C44.2577 50.2823 42.5552 50.4256 40.5696 50.4858C39.4104 50.5209 38.4421 49.6096 38.407 48.4504C38.3719 47.2911 39.2832 46.3228 40.4424 46.2877C42.4416 46.2271 43.2744 46.0687 43.8677 45.7636L43.8889 45.7527C44.7893 45.3025 45.5383 44.5511 46.0465 43.582C46.3497 42.9891 46.5072 42.1552 46.5676 40.1625C46.6027 39.0033 47.571 38.092 48.7302 38.1271Z" fill="#171719"/>
<path d="M7.7698 38.1573C8.92907 38.1222 9.89731 39.0335 9.93244 40.1927C9.99302 42.1919 10.1514 43.0248 10.4565 43.618L10.4674 43.6392C10.9176 44.5396 11.6691 45.2887 12.6382 45.7969C13.2311 46.1 14.065 46.2576 16.0576 46.3179C17.2169 46.3531 18.1282 47.3213 18.093 48.4806C18.0579 49.6398 17.0897 50.5511 15.9304 50.516C13.94 50.4557 12.2339 50.3118 10.7115 49.5289L10.6991 49.5224C9.01494 48.6421 7.59501 47.2803 6.71594 45.528C5.93786 44.0083 5.79455 42.3056 5.73438 40.32C5.69925 39.1607 6.61054 38.1924 7.7698 38.1573Z" fill="#171719"/>
<path d="M22.0546 48.3867C22.0546 47.227 22.9948 46.2867 24.1546 46.2867H32.3152C33.475 46.2867 34.4152 47.227 34.4152 48.3867C34.4152 49.5465 33.475 50.4867 32.3152 50.4867H24.1546C22.9948 50.4867 22.0546 49.5465 22.0546 48.3867Z" fill="#171719"/>
</mask>
<g mask="url(#mask0_1759_6855)">
<rect x="0.25" width="55.9998" height="56" fill="#222222"/>
</g>
</svg>
