<svg width="20" height="20" viewBox="0 0 20 20" fill="none" xmlns="http://www.w3.org/2000/svg">
<path d="M6.25024 10H6.25858M10.0002 10H10.0086M13.7502 10H13.7586M10.0002 17.5C14.1424 17.5 17.5002 14.1421 17.5002 10C17.5002 5.85786 14.1424 2.5 10.0002 2.5C5.85811 2.5 2.50024 5.85786 2.50024 10C2.50024 10.9976 2.69502 11.9497 3.04863 12.8204C3.11631 12.9871 3.15014 13.0704 3.16524 13.1377C3.18001 13.2036 3.18541 13.2524 3.18542 13.3199C3.18543 13.3889 3.17289 13.4641 3.14783 13.6145L2.65368 16.5794C2.60194 16.8898 2.57606 17.0451 2.62421 17.1573C2.66635 17.2556 2.74465 17.3339 2.8429 17.376C2.95516 17.4242 3.1104 17.3983 3.42088 17.3466L6.38579 16.8524C6.53615 16.8273 6.61133 16.8148 6.68035 16.8148C6.74787 16.8148 6.79663 16.8202 6.86251 16.835C6.92986 16.8501 7.01318 16.8839 7.17982 16.9516C8.0505 17.3052 9.00262 17.5 10.0002 17.5ZM6.66691 10C6.66691 10.2301 6.48036 10.4167 6.25024 10.4167C6.02013 10.4167 5.83358 10.2301 5.83358 10C5.83358 9.76988 6.02013 9.58333 6.25024 9.58333C6.48036 9.58333 6.66691 9.76988 6.66691 10ZM10.4169 10C10.4169 10.2301 10.2304 10.4167 10.0002 10.4167C9.77013 10.4167 9.58358 10.2301 9.58358 10C9.58358 9.76988 9.77013 9.58333 10.0002 9.58333C10.2304 9.58333 10.4169 9.76988 10.4169 10ZM14.1669 10C14.1669 10.2301 13.9804 10.4167 13.7502 10.4167C13.5201 10.4167 13.3336 10.2301 13.3336 10C13.3336 9.76988 13.5201 9.58333 13.7502 9.58333C13.9804 9.58333 14.1669 9.76988 14.1669 10Z" stroke="#717171" stroke-width="1.5" stroke-linecap="round" stroke-linejoin="round"/>
</svg>
