<svg width="22" height="23" viewBox="0 0 22 23" fill="none" xmlns="http://www.w3.org/2000/svg">
<path d="M19 11.5C19 15.9183 15.4183 19.5 11 19.5M19 11.5C19 7.08172 15.4183 3.5 11 3.5M19 11.5H21M11 19.5C6.58172 19.5 3 15.9183 3 11.5M11 19.5V21.5M3 11.5C3 7.08172 6.58172 3.5 11 3.5M3 11.5H1M11 3.5V1.5M14 11.5C14 13.1569 12.6569 14.5 11 14.5C9.34315 14.5 8 13.1569 8 11.5C8 9.84315 9.34315 8.5 11 8.5C12.6569 8.5 14 9.84315 14 11.5Z" stroke="#222222" stroke-width="1.5" stroke-linecap="round" stroke-linejoin="round"/>
</svg>
