<svg width="18" height="18" viewBox="0 0 18 18" fill="none" xmlns="http://www.w3.org/2000/svg">
<g id="Icon/Normal/message">
<path id="Icon" d="M5.625 9H5.6325M9 9H9.0075M12.375 9H12.3825M9 15.75C12.7279 15.75 15.75 12.7279 15.75 9C15.75 5.27208 12.7279 2.25 9 2.25C5.27208 2.25 2.25 5.27208 2.25 9C2.25 9.89786 2.4253 10.7548 2.74355 11.5384C2.80446 11.6884 2.83491 11.7633 2.8485 11.824C2.86179 11.8833 2.86665 11.9271 2.86666 11.9879C2.86666 12.05 2.85539 12.1177 2.83283 12.253L2.3881 14.9214C2.34152 15.2009 2.31824 15.3406 2.36157 15.4416C2.3995 15.53 2.46996 15.6005 2.55839 15.6384C2.65942 15.6818 2.79914 15.6585 3.07857 15.6119L5.74699 15.1672C5.88231 15.1446 5.94998 15.1333 6.0121 15.1333C6.07286 15.1334 6.11675 15.1382 6.17604 15.1515C6.23666 15.1651 6.31164 15.1955 6.46162 15.2565C7.24523 15.5747 8.10214 15.75 9 15.75ZM6 9C6 9.20711 5.83211 9.375 5.625 9.375C5.41789 9.375 5.25 9.20711 5.25 9C5.25 8.79289 5.41789 8.625 5.625 8.625C5.83211 8.625 6 8.79289 6 9ZM9.375 9C9.375 9.20711 9.20711 9.375 9 9.375C8.79289 9.375 8.625 9.20711 8.625 9C8.625 8.79289 8.79289 8.625 9 8.625C9.20711 8.625 9.375 8.79289 9.375 9ZM12.75 9C12.75 9.20711 12.5821 9.375 12.375 9.375C12.1679 9.375 12 9.20711 12 9C12 8.79289 12.1679 8.625 12.375 8.625C12.5821 8.625 12.75 8.79289 12.75 9Z" stroke="#BEBEBE" stroke-width="1.5" stroke-linecap="round" stroke-linejoin="round"/>
</g>
</svg>
